Coordinates
version=1
nRows=11
nColumns=36
inDegrees=yes

Units are S.I. units (second, meters, Newtons, ...)
If the header above contains a line with 'inDegrees', this indicates whether rotational values are in degrees (yes) or radians (no).

endheader
time	pelvis_tilt	pelvis_list	pelvis_rotation	pelvis_tx	pelvis_ty	pelvis_tz	hip_flexion_r	hip_adduction_r	hip_rotation_r	knee_angle_r	knee_angle_r_beta	ankle_angle_r	subtalar_angle_r	mtp_angle_r	hip_flexion_l	hip_adduction_l	hip_rotation_l	knee_angle_l	knee_angle_l_beta	ankle_angle_l	subtalar_angle_l	mtp_angle_l	lumbar_extension	lumbar_bending	lumbar_rotation	arm_flex_r	arm_add_r	arm_rot_r	elbow_flex_r	pro_sup_r	arm_flex_l	arm_add_l	arm_rot_l	elbow_flex_l	pro_sup_l
      6.45000000	      6.44401825	     -5.75250264	     -3.42221137	      0.08951594	      0.96402645	     -0.13345351	     30.93401781	     -1.72040513	     -4.88836484	      1.64202177	      0.02865869	     -4.10731386	    -10.51198391	     -7.49999987	      1.87904578	      0.52648923	     -3.03065197	     14.18241870	      0.24752990	     -4.14675224	    -10.49926379	     -7.49999987	    -28.09209892	      6.47860780	      1.23291933	     49.22742713	     12.05990860	     73.74155625	    122.41273506	    102.33959484	     58.79281927	      8.03252114	     77.69998380	    129.42700858	     82.69538775
      6.46666670	      6.73578526	     -5.76730469	     -3.48487892	      0.08848660	      0.96424749	     -0.13323512	     30.39783048	     -1.59639235	     -5.41159082	      1.57193935	      0.02743552	     -3.35062023	     -9.25670653	     -7.49999987	      1.55095209	      0.50662128	     -3.53573325	     14.46275030	      0.25242261	     -2.99407086	     -9.62847212	     -7.49999987	    -28.26980546	      6.38552215	      1.36357023	     49.32331882	     12.07490159	     73.75172881	    122.37611848	    101.14074845	     58.76633400	      8.04399294	     77.89744170	    129.51345485	     81.58601737
      6.48333330	      6.83405979	     -5.54075479	     -3.37865891	      0.08845176	      0.96756192	     -0.13369487	     30.07042468	     -1.79053636	     -5.21515167	      1.51046147	      0.02636253	     -3.37421524	     -8.85964099	     -7.49999987	      1.58851753	      0.76866778	     -3.19519632	     14.40826841	      0.25147172	     -3.08387436	     -9.85159854	     -7.49999987	    -28.22021499	      6.10165621	      1.30570395	     49.07504994	     12.01551799	     73.65212196	    122.40467155	    103.34181305	     58.62719185	      8.13452056	     78.16006440	    129.61264615	     83.13220200
      6.50000000	      7.22474646	     -5.54372536	     -3.25228516	      0.08894408	      0.96682479	     -0.13283473	     29.31493297	     -1.73810802	     -5.36661118	      1.39149973	      0.02428625	     -2.96341663	     -8.20162364	     -7.49999987	      1.22725647	      0.68771883	     -3.31968139	     14.37687596	      0.25092382	     -3.08975901	     -9.69983161	     -7.49999987	    -28.49121854	      6.10090314	      1.36107893	     48.92529362	     11.90262458	     73.24724399	    122.15451798	    103.49098362	     58.62368049	      8.08023630	     78.26115210	    129.77754078	     83.05598272
      6.51666670	      7.49874641	     -5.51476609	     -3.10585029	      0.08813281	      0.96663568	     -0.13301998	     28.75734073	     -1.77868830	     -5.63326920	      1.31398608	      0.02293338	     -2.74710311	     -7.59958118	     -7.49999987	      1.10650608	      0.68094036	     -3.25788961	     14.35070086	      0.25046698	     -3.29918833	     -9.57018386	     -7.49999987	    -28.73620846	      6.09153100	      1.45679667	     48.87724332	     11.69186103	     72.74079316	    122.06557473	    103.52776485	     58.68006765	      8.15364034	     78.45159795	    129.87446085	     82.98736026
      6.53333330	      7.75382082	     -5.47525376	     -3.31094960	      0.08717461	      0.96699533	     -0.13370183	     28.39896298	     -1.71135513	     -5.34695268	      1.46325379	      0.02553860	     -2.68787967	     -7.74431074	     -7.49999987	      0.93457957	      0.70960260	     -3.46991700	     14.21036372	      0.24801763	     -3.89487289	     -9.77501152	     -7.49999987	    -29.01191497	      5.97309705	      1.59891766	     48.84077019	     11.52189612	     72.03561295	    121.99504014	    103.36117750	     58.86996000	      8.19621842	     78.35335847	    129.92801871	     83.11504002
      6.55000000	      7.73730954	     -5.38619628	     -3.45448338	      0.08638100	      0.96496589	     -0.13428557	     28.37831904	     -1.75507590	     -5.13019508	      1.59637757	      0.02786204	     -2.62932785	     -7.57982580	     -7.49999987	      1.14803959	      0.83494442	     -3.62596485	     14.29017846	      0.24941066	     -4.14736712	    -10.16461419	     -7.49999987	    -29.04877240	      5.85100176	      1.64474507	     48.93008054	     11.38914895	     71.54803163	    122.17162961	    103.32626889	     59.11337509	      8.28967676	     78.25647775	    129.96425665	     83.56299133
      6.56666670	      7.59574280	     -5.12410347	     -3.86306740	      0.08582948	      0.96483472	     -0.13422675	     28.60010502	     -1.83164671	     -4.81792927	      1.75769674	      0.03067760	     -2.76196790	     -7.31561541	     -7.49999987	      1.41968535	      1.14382514	     -3.82521691	     14.25610690	      0.24881600	     -4.79586354	    -10.87491418	     -7.49999987	    -29.00298050	      5.44320903	      1.60008770	     49.02104025	     11.30930131	     70.94837464	    122.27891293	    103.45107096	     59.39111869	      8.28111333	     78.09386166	    130.02480392	     83.70390074
      6.58333330	      7.64070696	     -4.98300005	     -4.26718372	      0.08632204	      0.96505618	     -0.13406717	     28.56643032	     -1.75823117	     -4.40015215	      1.87154662	      0.03266465	     -2.63429028	     -7.43121914	     -7.49999987	      1.43431545	      1.29654759	     -4.19389117	     14.12103959	      0.24645863	     -5.38634222	    -11.18572541	     -7.49999987	    -29.10935968	      5.17849000	      1.56024266	     49.15555769	     11.41354810	     70.98000834	    122.36530809	    100.95594748	     59.74463871	      8.17191009	     78.15012537	    130.15631499	     81.70620214
      6.60000000	      7.17373733	     -4.79404318	     -4.57109086	      0.08215544	      0.96471602	     -0.13250335	     29.25290522	     -1.75457848	     -4.09020782	      2.17018094	      0.03787680	     -3.15946370	     -7.81692061	     -7.49999987	      2.13900700	      1.47880040	     -3.96399068	     13.99474291	      0.24425434	     -6.21374228	    -11.87438313	     -7.49999987	    -28.77449335	      4.78170182	      1.52172452	     49.15491797	     11.47163752	     70.60303724	    122.83710975	    103.81658691	     60.27855956	      8.19612082	     77.96703693	    130.18777834	     84.04487775
      6.61666670	      7.00650492	     -4.64973747	     -4.82988786	      0.08136614	      0.96406756	     -0.13214558	     29.65067166	     -1.73147085	     -3.49320415	      2.51548869	      0.04390356	     -3.68868128	     -8.62691444	     -7.49999987	      2.52825233	      1.55667797	     -4.10350332	     13.99324328	      0.24422817	     -6.66229345	    -12.01771312	     -7.49999987	    -28.81164603	      4.38321373	      1.53498055	     49.35852890	     11.49976475	     70.43816637	    123.18874768	    103.22275465	     60.93819569	      8.26584985	     78.01238774	    130.18779603	     83.72666260
